<?xml version="1.0" encoding="UTF-8"?>
<svg xmlns="http://www.w3.org/2000/svg" version="1.1" viewBox="0 0 120 120">
  <defs>
    <style>
      .cls-1 {
        fill: #fff;
      }

      .cls-2 {
        fill: #006654;
      }
    </style>
  </defs>
  <!-- Generator: Adobe Illustrator 28.7.1, SVG Export Plug-In . SVG Version: 1.2.0 Build 142)  -->
  <g>
    <g id="Layer_1">
      <rect class="cls-2" x="-2.2" y="-2.4" width="124.4" height="124.9"/>
      <g id="Layer_1-2" data-name="Layer_1">
        <g>
          <path class="cls-1" d="M61,56.1c-.6.4-1.5.4-2.1,0-.3-.1-5.9-4.2-6.2-10.5-.3-4.2,1.8-8.2,6-11.9.8-.6,1.7-.6,2.4,0,4.2,3.7,6.3,7.7,6,11.9-.3,6.2-5.9,10.2-6.2,10.5h0ZM60,37.4c-2.6,2.7-3.8,5.2-3.6,7.9.1,3.1,2.4,5.6,3.6,7,1.4-1.3,3.5-3.7,3.6-7,.3-2.5-1.1-5.2-3.6-7.9h0Z"/>
          <path class="cls-1" d="M81,71.9c-5.4-1.6-9.9-1.2-13.4,1-.9.6-1.7,1.2-2.3,1.9v-5.5c3.5-.3,6.5-1,8.4-1.9,7.5-3.7,6.8-12.9,6.8-13.2,0-.9-.8-1.5-1.5-1.6-5.7-.7-10.1.3-13.1,3-3.8,3.4-4.2,8.5-4.2,10.5h-3.6c0-2.1-.4-7.1-4.2-10.5-3-2.8-7.5-3.9-13.1-3-.9.1-1.5.7-1.5,1.6s-.6,9.5,6.8,13.2c2,1,5,1.6,8.4,1.9v5.5c-.6-.7-1.4-1.3-2.3-1.9-3.5-2.4-8-2.7-13.4-1-.9.1-1.4,1-1.2,1.9,1.1,5.6,3.5,9.4,7.1,11.4,2,1,4.2,1.5,6,1.5,3.5,0,6-1,6.3-1.2.6-.3,1.1-.9,1.1-1.6v-14.1h3.6v14.1c0,.7.4,1.3,1.1,1.6.1,0,2.9,1.2,6.3,1.2s4.1-.3,6-1.5c3.8-1.9,6-5.8,7.1-11.4.3-.9-.3-1.8-1.2-1.9h0ZM46.6,82c-2.3-1.2-3.9-3.7-5-7.3,3.6-.7,6.6-.3,8.7,1.2,2.7,1.8,3.8,4.9,4.1,6.7-1.8.4-5,.9-7.8-.6ZM47.8,64.4c-3.8-1.9-4.7-6.1-4.8-8.5,3.8-.3,6.6.4,8.6,2.2,2.6,2.4,3,6.1,3,7.7-2.7-.1-5.1-.7-6.8-1.5ZM68.4,58.3c1.7-1.5,4.1-2.4,7.1-2.4h1.5c-.1,2.2-1.1,6.5-4.8,8.5-1.5.7-4.1,1.3-6.8,1.6,0-1.8.4-5.5,3-7.7h0ZM73.5,82c-2.9,1.5-6.2,1-8,.6.4-1.8,1.4-4.9,4.1-6.7,2.1-1.5,5.1-1.8,8.7-1-.9,3.4-2.6,5.9-4.8,7.1h0Z"/>
        </g>
      </g>
    </g>
  </g>
</svg>