<svg xmlns="http://www.w3.org/2000/svg" viewBox="0 0 800 600" width="800" height="600">
  <!-- Light cream background -->
  <rect width="800" height="600" fill="#FCF8F0"/>

  <!-- Grid of brand tiles — 3 columns × 2 rows -->

  <!-- Row 1 -->
  <!-- Tile A -->
  <rect x="60" y="80" width="210" height="180" rx="8" fill="#09332C" opacity="0.08"/>
  <rect x="80" y="108" width="80" height="6" rx="3" fill="#09332C" opacity="0.3"/>
  <rect x="80" y="122" width="120" height="4" rx="2" fill="#09332C" opacity="0.12"/>
  <rect x="80" y="134" width="100" height="4" rx="2" fill="#09332C" opacity="0.08"/>
  <rect x="80" y="200" width="40" height="20" rx="4" fill="#09332C" opacity="0.15"/>

  <!-- Tile B -->
  <rect x="295" y="80" width="210" height="180" rx="8" fill="#F0531C" opacity="0.07"/>
  <rect x="315" y="108" width="60" height="6" rx="3" fill="#F0531C" opacity="0.4"/>
  <rect x="315" y="122" width="100" height="4" rx="2" fill="#09332C" opacity="0.1"/>
  <rect x="315" y="134" width="80" height="4" rx="2" fill="#09332C" opacity="0.07"/>
  <rect x="315" y="200" width="40" height="20" rx="4" fill="#F0531C" opacity="0.2"/>

  <!-- Tile C -->
  <rect x="530" y="80" width="210" height="180" rx="8" fill="#D4C9B0" opacity="0.35"/>
  <rect x="550" y="108" width="70" height="6" rx="3" fill="#09332C" opacity="0.25"/>
  <rect x="550" y="122" width="110" height="4" rx="2" fill="#09332C" opacity="0.1"/>
  <rect x="550" y="134" width="90" height="4" rx="2" fill="#09332C" opacity="0.07"/>
  <rect x="550" y="200" width="40" height="20" rx="4" fill="#09332C" opacity="0.12"/>

  <!-- Row 2 -->
  <!-- Tile D -->
  <rect x="60" y="286" width="210" height="180" rx="8" fill="#D4C9B0" opacity="0.25"/>
  <rect x="80" y="314" width="50" height="6" rx="3" fill="#09332C" opacity="0.2"/>
  <rect x="80" y="328" width="90" height="4" rx="2" fill="#09332C" opacity="0.08"/>
  <rect x="80" y="340" width="70" height="4" rx="2" fill="#09332C" opacity="0.06"/>
  <rect x="80" y="406" width="40" height="20" rx="4" fill="#09332C" opacity="0.1"/>

  <!-- Tile E -->
  <rect x="295" y="286" width="210" height="180" rx="8" fill="#09332C" opacity="0.06"/>
  <rect x="315" y="314" width="90" height="6" rx="3" fill="#09332C" opacity="0.2"/>
  <rect x="315" y="328" width="130" height="4" rx="2" fill="#09332C" opacity="0.08"/>
  <rect x="315" y="340" width="100" height="4" rx="2" fill="#09332C" opacity="0.05"/>
  <rect x="315" y="406" width="40" height="20" rx="4" fill="#09332C" opacity="0.1"/>

  <!-- Tile F -->
  <rect x="530" y="286" width="210" height="180" rx="8" fill="#FFA74F" opacity="0.12"/>
  <rect x="550" y="314" width="65" height="6" rx="3" fill="#F0531C" opacity="0.3"/>
  <rect x="550" y="328" width="105" height="4" rx="2" fill="#09332C" opacity="0.08"/>
  <rect x="550" y="340" width="85" height="4" rx="2" fill="#09332C" opacity="0.05"/>
  <rect x="550" y="406" width="40" height="20" rx="4" fill="#FFA74F" opacity="0.35"/>

  <!-- Convergence arrow — subtle upward pointing consolidation indicator -->
  <line x1="400" y1="496" x2="400" y2="536" stroke="#09332C" stroke-width="1" opacity="0.12"/>
  <polygon points="394,496 400,484 406,496" fill="#09332C" opacity="0.12"/>

  <!-- Background label -->
  <text x="48" y="574" font-family="ui-sans-serif, system-ui, sans-serif" font-size="10" fill="#09332C" opacity="0.22" letter-spacing="3">EDTECH · UX STRATEGY · LEADERSHIP</text>
</svg>
