<svg xmlns="http://www.w3.org/2000/svg" viewBox="0 0 800 600" width="800" height="600">
  <!-- Warm cream background -->
  <rect width="800" height="600" fill="#F7DFBA"/>

  <!-- Phone frame — outer shell -->
  <rect x="280" y="52" width="240" height="468" rx="24" fill="#FCF8F0" stroke="#D4C9B0" stroke-width="1.5"/>

  <!-- Phone notch area -->
  <rect x="280" y="52" width="240" height="60" rx="24" fill="#EDE0C8"/>
  <rect x="280" y="88" width="240" height="24" fill="#EDE0C8"/>

  <!-- Camera pill -->
  <rect x="340" y="70" width="60" height="14" rx="7" fill="#D4C9B0" opacity="0.6"/>

  <!-- Status bar lines -->
  <rect x="310" y="130" width="60" height="3" rx="1.5" fill="#D4C9B0" opacity="0.5"/>
  <rect x="420" y="130" width="60" height="3" rx="1.5" fill="#D4C9B0" opacity="0.5"/>

  <!-- Section label -->
  <rect x="300" y="152" width="40" height="4" rx="2" fill="#F0531C" opacity="0.5"/>

  <!-- Recipe / content cards -->
  <!-- Card 1 (featured) -->
  <rect x="300" y="168" width="200" height="80" rx="8" fill="#EDE0C8"/>
  <rect x="316" y="184" width="90" height="6" rx="3" fill="#09332C" opacity="0.25"/>
  <rect x="316" y="198" width="130" height="4" rx="2" fill="#09332C" opacity="0.12"/>
  <rect x="316" y="210" width="110" height="4" rx="2" fill="#09332C" opacity="0.12"/>
  <!-- Thumb image placeholder -->
  <rect x="436" y="176" width="48" height="56" rx="6" fill="#D4C9B0" opacity="0.7"/>

  <!-- Card 2 -->
  <rect x="300" y="260" width="200" height="70" rx="8" fill="#EDE0C8" opacity="0.7"/>
  <rect x="316" y="276" width="70" height="5" rx="2.5" fill="#09332C" opacity="0.2"/>
  <rect x="316" y="289" width="110" height="4" rx="2" fill="#09332C" opacity="0.1"/>
  <rect x="436" y="267" width="48" height="48" rx="6" fill="#D4C9B0" opacity="0.5"/>

  <!-- Card 3 -->
  <rect x="300" y="342" width="200" height="70" rx="8" fill="#EDE0C8" opacity="0.5"/>
  <rect x="316" y="358" width="80" height="5" rx="2.5" fill="#09332C" opacity="0.15"/>
  <rect x="316" y="371" width="100" height="4" rx="2" fill="#09332C" opacity="0.08"/>
  <rect x="436" y="349" width="48" height="48" rx="6" fill="#D4C9B0" opacity="0.35"/>

  <!-- Bottom nav bar -->
  <rect x="280" y="454" width="240" height="66" rx="0" fill="#EDE0C8"/>
  <rect x="280" y="498" width="240" height="22" rx="0" fill="#EDE0C8"/>
  <rect x="280" y="494" width="240" height="26" rx="0" fill="#EDE0C8"/>
  <!-- Bottom corner fix -->
  <rect x="280" y="494" width="240" height="26" fill="#EDE0C8"/>
  <rect x="280" y="494" width="240" height="26" rx="24" fill="#EDE0C8"/>
  <path d="M280 494 h240 v2 Q520 520 280 520 Z" fill="#EDE0C8"/>

  <!-- Nav icons -->
  <circle cx="330" cy="472" r="5" fill="#D4C9B0" opacity="0.6"/>
  <circle cx="380" cy="472" r="5" fill="#F0531C" opacity="0.5"/>
  <circle cx="430" cy="472" r="5" fill="#D4C9B0" opacity="0.6"/>
  <circle cx="480" cy="472" r="5" fill="#D4C9B0" opacity="0.6"/>

  <!-- Home indicator -->
  <rect x="356" y="504" width="88" height="3" rx="1.5" fill="#09332C" opacity="0.15"/>

  <!-- Background label -->
  <text x="48" y="560" font-family="ui-sans-serif, system-ui, sans-serif" font-size="10" fill="#09332C" opacity="0.25" letter-spacing="3">APP · UX STRATEGY</text>
</svg>
